<svg width="221" height="71" viewBox="0 0 221 71" fill="none" xmlns="http://www.w3.org/2000/svg">
<g clip-path="url(#clip0_1242_150)">
<path d="M61.1427 34.6127C60.3806 34.1405 59.5548 33.7739 58.6892 33.5234C57.814 33.2681 56.997 33.0258 56.2385 32.7964C55.5765 32.6087 54.9384 32.3483 54.3367 32.0201C54.0959 31.8909 53.8968 31.6987 53.7618 31.4651C53.6268 31.2315 53.5612 30.9658 53.5725 30.698C53.5598 30.4757 53.599 30.2536 53.6872 30.0483C53.7753 29.843 53.9102 29.6599 54.0814 29.5129C54.4463 29.2242 54.9061 29.0743 55.3756 29.0912C55.628 29.0743 55.8813 29.107 56.1205 29.1874C56.3598 29.2679 56.58 29.3944 56.7681 29.5595C57.0935 29.8803 57.2572 30.4841 57.2592 31.3707H63.3777C63.3767 27.0342 60.724 24.8651 55.4197 24.8633C54.1516 24.8407 52.8876 25.0091 51.6723 25.3627C50.7102 25.6425 49.8169 26.1109 49.047 26.7392C48.3756 27.2961 47.8448 27.9964 47.4959 28.7859C47.1511 29.592 46.978 30.4583 46.9874 31.3319C46.9877 32.6342 47.2434 33.6864 47.7546 34.4885C48.2352 35.2614 48.8846 35.9214 49.6567 36.4213C50.4157 36.9116 51.2381 37.3014 52.1023 37.5805C52.9775 37.8616 53.7945 38.1299 54.553 38.3852C55.223 38.5997 55.8628 38.8953 56.4575 39.2649C56.7015 39.4154 56.9005 39.626 57.0346 39.8753C57.1688 40.1247 57.2333 40.404 57.2217 40.6854C57.2336 40.9326 57.1847 41.1791 57.0791 41.4041C56.9735 41.6292 56.8142 41.8263 56.6147 41.9791C56.2044 42.2858 55.6994 42.4473 55.1826 42.4371C54.8909 42.4522 54.6002 42.3931 54.3388 42.2656C54.0775 42.1382 53.8546 41.9467 53.6919 41.71C53.4942 41.4497 53.3599 41.1488 53.2992 40.8303C53.2196 40.4532 53.1803 40.069 53.1822 39.684H46.9841C46.9846 41.9541 47.6322 43.6635 48.9267 44.8123C50.2213 45.9611 52.3431 46.5347 55.2923 46.5329C56.5048 46.5488 57.7132 46.3946 58.8806 46.075C59.8618 45.8092 60.772 45.3386 61.5483 44.6959C62.2591 44.0947 62.828 43.3507 63.216 42.5147C63.6165 41.6356 63.8171 40.6823 63.8041 39.7203C63.8038 38.3955 63.548 37.3312 63.0369 36.5274C62.5625 35.7573 61.9148 35.1026 61.1427 34.6127V34.6127Z" fill="#D0CCDA"/>
<path d="M84.9132 40.2955H84.8336L82.7507 25.4102H75.2212L73.1455 40.2955H73.0686L71.2986 25.4102H64.4746L68.7947 46.1121H76.7937L78.9489 31.4569H79.0285L81.1883 46.1121H89.1899L93.4999 25.4102H86.6732L84.9132 40.2955Z" fill="#D0CCDA"/>
<path d="M132.002 19.3256L124.953 22.5159L124.954 25.4189H119.649L119.649 24.1563C119.63 23.9443 119.667 23.731 119.756 23.5368C119.845 23.3425 119.983 23.1737 120.158 23.0463C120.504 22.8144 120.916 22.6941 121.335 22.7021C121.601 22.7021 121.813 22.7021 121.983 22.7203C122.162 22.7343 122.34 22.7664 122.513 22.816L122.512 18.4847C121.964 18.407 121.395 18.3493 120.807 18.3113C120.218 18.2751 119.664 18.2544 119.141 18.2544C118.099 18.2345 117.058 18.337 116.041 18.5597C115.296 18.7193 114.603 19.0552 114.023 19.5377C113.497 20.0052 113.116 20.6078 112.925 21.2765C112.683 22.1366 112.571 23.0265 112.592 23.9182L112.592 25.4189H110.16L110.161 30.0478H112.593L112.597 46.1182H119.654L119.651 30.04H124.955L124.958 41.0598C124.93 41.9953 125.043 42.9297 125.292 43.8335C125.463 44.4602 125.835 45.017 126.354 45.4222C126.901 45.8023 127.541 46.0336 128.21 46.0924C129.122 46.1892 130.038 46.2341 130.955 46.2269C131.555 46.2269 132.182 46.2071 132.838 46.1674C133.491 46.1312 134.143 46.1105 134.798 46.1105L134.797 41.5204H133.699C133.242 41.5566 132.788 41.4266 132.423 41.1556C132.158 40.9149 132.012 40.4984 132.012 39.911L132.01 30.04H134.794L134.793 25.4189H132.008L132.002 19.3256Z" fill="#D0CCDA"/>
<path d="M151.046 27.0361C150.326 26.2576 149.404 25.6828 148.378 25.3724C145.82 24.6755 143.111 24.7087 140.572 25.4681C139.477 25.8357 138.507 26.4911 137.77 27.3621C136.977 28.3489 136.427 29.4995 136.161 30.7258C135.792 32.3819 135.622 34.0741 135.653 35.7686C135.627 37.4508 135.778 39.131 136.105 40.783C136.332 41.9987 136.85 43.145 137.617 44.1286C138.339 44.9955 139.307 45.6355 140.4 45.9682C141.787 46.3685 143.229 46.5553 144.675 46.5219C147.605 46.5219 149.71 45.8776 150.99 44.5891C152.269 43.3006 152.936 41.3807 152.991 38.8295H146.625C146.626 40.2354 146.449 41.1841 146.096 41.6757C145.937 41.9125 145.718 42.1054 145.461 42.236C145.204 42.3665 144.916 42.4301 144.626 42.4209C144.379 42.4196 144.134 42.3699 143.906 42.2748C143.678 42.1797 143.472 42.0411 143.3 41.8672C142.918 41.5084 142.727 40.7692 142.727 39.6497L142.726 36.933H153.2L153.199 34.8294C153.233 33.2379 153.055 31.6487 152.667 30.1022C152.382 28.9699 151.827 27.9193 151.046 27.0361V27.0361ZM146.595 33.1812H142.725L142.725 32.2627C142.725 31.1656 142.862 30.3618 143.136 29.8512C143.409 29.3406 143.913 29.0819 144.647 29.075C145.406 29.075 145.92 29.3337 146.196 29.8512C146.472 30.3687 146.608 31.1656 146.608 32.2627L146.595 33.1812Z" fill="#D0CCDA"/>
<path d="M167.658 33.9435L173.539 25.4103H166.009L162.086 32.5644H162.009L162.005 18.7891L154.946 21.9793L154.952 46.1121H162.012L162.011 40.7924L163.188 38.9942L166.757 46.1121H174.289L167.658 33.9435Z" fill="#D0CCDA"/>
<path d="M108.97 17.3516L105.15 37.2695L101.649 36.8322L99.1978 54.1886L95.8451 30.7673L99.2586 31.3676L98.6252 22.516L108.97 17.3516Z" fill="#D0CCDA"/>
</g>
<defs>
<clipPath id="clip0_1242_150">
<rect width="128" height="37" fill="white" transform="matrix(1 0 0.000244337 1 46.9785 17.3516)"/>
</clipPath>
</defs>
</svg>
