<svg width="221" height="71" viewBox="0 0 221 71" fill="none" xmlns="http://www.w3.org/2000/svg">
<path d="M28.7293 25.1516C30.7746 25.1516 32.5427 25.5242 34.0336 26.2696C35.5244 26.9976 36.6687 28.0462 37.4663 29.4156C38.2813 30.7676 38.689 32.3796 38.6895 34.2516C38.69 36.1236 38.283 37.7442 37.4687 39.1136C36.6717 40.4656 35.5279 41.5142 34.0375 42.2596C32.547 42.9876 30.7791 43.3516 28.7337 43.3516H22.5457L22.5195 42.2596C23.0221 42.2596 23.5421 42.2596 24.0795 42.2596C24.6341 42.2596 25.1715 42.2596 25.6915 42.2596C26.2115 42.2596 26.6708 42.2596 27.0695 42.2596C27.4855 42.2596 27.8148 42.2596 28.0575 42.2596C28.3001 42.2596 28.4215 42.2596 28.4215 42.2596C29.6695 42.2596 30.744 41.9389 31.6452 41.2976C32.5464 40.6389 33.2395 39.7116 33.7245 38.5156C34.2096 37.3196 34.4519 35.8982 34.4515 34.2516C34.4511 32.6049 34.2081 31.1836 33.7225 29.9876C33.2368 28.7916 32.5433 27.8729 31.6418 27.2316C30.7403 26.5729 29.6655 26.2436 28.4175 26.2436C28.4175 26.2436 28.2875 26.2436 28.0275 26.2436C27.7849 26.2436 27.4469 26.2436 27.0135 26.2436C26.5802 26.2436 26.0949 26.2436 25.5575 26.2436C25.0202 26.2436 24.4655 26.2436 23.8935 26.2436C23.3215 26.2436 22.7755 26.2436 22.2555 26.2436L22.2553 25.1516H28.7293ZM25.1933 25.1516L25.1977 43.3516H21.2977L21.2933 25.1516H25.1933ZM21.3753 41.4536L21.3757 43.3516H19.2957L19.2957 43.0916C19.2957 43.0916 19.3477 43.0916 19.4517 43.0916C19.573 43.0916 19.6337 43.0916 19.6337 43.0916C20.0843 43.0916 20.4656 42.9356 20.7775 42.6236C21.1068 42.2942 21.28 41.9042 21.2973 41.4536H21.3753ZM21.3717 27.0496H21.2937C21.2936 26.5989 21.1289 26.2176 20.7995 25.9056C20.47 25.5762 20.08 25.4116 19.6293 25.4116C19.6293 25.4116 19.5773 25.4116 19.4733 25.4116C19.3693 25.4116 19.3173 25.4116 19.3173 25.4116L19.2913 25.1516H21.3713L21.3717 27.0496ZM46.1895 27.7516L46.1933 43.3516H42.4493L42.4455 27.7516H46.1895ZM52.2771 42.3116L52.8753 43.3516H46.1413L46.1411 42.3116H52.2771ZM51.3913 35.1096L51.3916 36.1496H46.1396L46.1393 35.1096H51.3913ZM52.5595 27.7516L52.5598 28.7916H46.1378L46.1375 27.7516H52.5595ZM53.9402 38.5676L52.9533 43.3516H48.4553L49.2611 42.3116C50.0064 42.3116 50.665 42.1642 51.237 41.8696C51.8262 41.5576 52.3288 41.1242 52.7447 40.5696C53.1605 39.9976 53.481 39.3302 53.7062 38.5676H53.9402ZM51.3916 36.0976L51.3921 38.3856H51.1321L51.1321 38.1776C51.1319 37.6056 50.9498 37.1289 50.5857 36.7476C50.239 36.3662 49.7622 36.1669 49.1556 36.1496L49.1556 36.0976H51.3916ZM51.3908 32.8736L51.3913 35.1616H49.1553L49.1553 35.1096C49.762 35.0922 50.2386 34.8929 50.5852 34.5116C50.9491 34.1129 51.131 33.6276 51.1308 33.0556L51.1308 32.8736H51.3908ZM52.5598 28.7396L52.5604 31.4956H52.3004L52.3004 31.2616C52.3002 30.4989 52.092 29.9009 51.6759 29.4676C51.2772 29.0342 50.6964 28.8089 49.9338 28.7916L49.9338 28.7396H52.5598ZM52.5594 27.3616L52.5596 27.9856L49.8295 27.7516C50.3322 27.7516 50.8608 27.7082 51.4155 27.6216C51.9701 27.5176 52.3514 27.4309 52.5594 27.3616ZM42.5009 41.7136L42.6313 43.3516H40.7073L40.7073 43.0916C40.7073 43.0916 40.7593 43.0916 40.8633 43.0916C40.9673 43.0916 41.0279 43.0916 41.0453 43.0916C41.4266 43.0916 41.7472 42.9616 42.0072 42.7016C42.2844 42.4242 42.4317 42.0949 42.4489 41.7136H42.5009ZM42.4979 29.3896H42.4459C42.4285 28.9909 42.2811 28.6616 42.0037 28.4016C41.7436 28.1416 41.4229 28.0116 41.0416 28.0116C41.0243 28.0116 40.9636 28.0116 40.8596 28.0116C40.7556 28.0116 40.7036 28.0116 40.7036 28.0116L40.7035 27.7516H42.6275L42.4979 29.3896ZM61.2837 27.7516L61.2876 43.3516H57.5436L57.5397 27.7516H61.2837ZM67.3453 42.3116L67.9696 43.3516H61.2356L61.2353 42.3116H67.3453ZM69.0604 38.5676L68.0476 43.3516H63.5496L64.3553 42.3116C65.1006 42.3116 65.7593 42.1642 66.3312 41.8696C66.9204 41.5576 67.423 41.1242 67.8389 40.5696C68.2547 39.9976 68.5752 39.3302 68.8004 38.5676H69.0604ZM57.5952 41.7136L57.7256 43.3516H55.8016L55.8015 43.0916C55.8015 43.0916 55.8535 43.0916 55.9575 43.0916C56.0615 43.0916 56.1222 43.0916 56.1395 43.0916C56.5208 43.0916 56.8415 42.9616 57.1014 42.7016C57.3787 42.4242 57.5259 42.0949 57.5432 41.7136H57.5952ZM61.2321 29.3896L61.2317 27.7516H63.0257L63.0258 28.0116C63.0085 28.0116 62.9478 28.0116 62.8438 28.0116C62.7571 28.0116 62.7138 28.0116 62.7138 28.0116C62.3325 28.0116 62.0032 28.1416 61.7259 28.4016C61.4486 28.6616 61.3014 28.9909 61.2841 29.3896H61.2321ZM57.5921 29.3896H57.5401C57.5227 28.9909 57.3753 28.6616 57.0979 28.4016C56.8205 28.1416 56.4911 28.0116 56.1098 28.0116C56.0925 28.0116 56.0318 28.0116 55.9278 28.0116C55.8411 28.0116 55.7978 28.0116 55.7978 28.0116L55.7977 27.7516H57.5917L57.5921 29.3896ZM75.43 27.7516L75.4324 37.5536C75.4328 39.1482 75.7971 40.3962 76.5253 41.2976C77.2708 42.1989 78.3023 42.6496 79.6196 42.6496C80.989 42.6496 82.0462 42.2249 82.7913 41.3756C83.5538 40.5262 83.9435 39.3476 83.9604 37.8396L83.958 27.7516H85.674L85.6764 37.6836C85.6769 39.5382 85.1052 41.0029 83.9615 42.0776C82.8351 43.1522 81.2319 43.6896 79.1519 43.6896C76.6385 43.6896 74.7664 43.1609 73.5355 42.1036C72.3046 41.0289 71.6889 39.5642 71.6884 37.7096L71.686 27.7516H75.43ZM71.738 27.7516L71.7383 29.1036H71.6863C71.6689 28.7742 71.5475 28.5056 71.3221 28.2976C71.0967 28.0896 70.8194 27.9856 70.49 27.9856C70.49 27.9856 70.4294 27.9856 70.308 27.9856C70.1867 27.9856 70.126 27.9856 70.126 27.9856L70.126 27.7516H71.738ZM76.964 27.7516L76.964 27.9856C76.964 27.9856 76.9034 27.9856 76.782 27.9856C76.6607 27.9856 76.6 27.9856 76.6 27.9856C76.2707 27.9856 75.9934 28.0896 75.7681 28.2976C75.5428 28.5056 75.4302 28.7742 75.4303 29.1036H75.3783L75.378 27.7516H76.964ZM84.01 27.7516L84.0103 29.1036H83.9583C83.9409 28.7742 83.8195 28.5056 83.5941 28.2976C83.3687 28.0896 83.1 27.9856 82.788 27.9856C82.788 27.9856 82.7274 27.9856 82.606 27.9856C82.4847 27.9856 82.424 27.9856 82.424 27.9856L82.424 27.7516H84.01ZM87.208 27.7516L87.208 27.9856C87.208 27.9856 87.1474 27.9856 87.026 27.9856C86.922 27.9856 86.87 27.9856 86.87 27.9856C86.5407 27.9856 86.2547 28.0896 86.0121 28.2976C85.7868 28.5056 85.6742 28.7742 85.6743 29.1036H85.6223L85.622 27.7516H87.208ZM93.996 27.7516L104.062 43.3256H99.7198L89.706 27.7516H93.996ZM92.4394 41.7396C92.2142 42.0689 92.2056 42.3809 92.4137 42.6756C92.6391 42.9529 92.9078 43.0916 93.2198 43.0916C93.2198 43.0916 93.2631 43.0916 93.3498 43.0916C93.4538 43.0916 93.5058 43.0916 93.5058 43.0916L93.5058 43.3516H87.7858L87.7858 43.0916H88.0978C88.5831 43.0916 89.0164 42.9702 89.3977 42.7276C89.7963 42.4676 90.1342 42.1642 90.4114 41.8176L92.4394 41.7396ZM95.2979 35.3956L96.4161 36.3056L91.2958 43.3256L89.3198 43.2736L95.2979 35.3956ZM98.7054 41.7656L103.099 41.8436C103.325 42.1729 103.637 42.4676 104.036 42.7276C104.452 42.9702 104.902 43.0916 105.388 43.0916H105.7L105.7 43.3516H97.6398L97.6398 43.0916C97.6398 43.0916 97.6831 43.0916 97.7698 43.0916C97.8738 43.0916 97.9258 43.0916 97.9258 43.0916C98.2378 43.0916 98.4977 42.9529 98.7057 42.6756C98.9136 42.3809 98.9135 42.0776 98.7054 41.7656ZM96.076 27.7256L96.0761 27.9856C96.0761 27.9856 96.0241 27.9856 95.9201 27.9856C95.8334 27.9856 95.7901 27.9856 95.7901 27.9856C95.4954 27.9856 95.2441 28.1329 95.0362 28.4276C94.8282 28.7222 94.8197 29.0169 95.0104 29.3116L90.6944 29.2336C90.4516 28.9042 90.1222 28.6182 89.7062 28.3756C89.3074 28.1156 88.8654 27.9856 88.3801 27.9856H88.0681L88.068 27.7256H96.076ZM103.538 27.7516L98.054 35.7856L97.1956 34.4336L101.536 27.7516H103.538ZM105.15 27.7256L105.15 27.9856H104.812C104.344 27.9856 103.902 28.1069 103.486 28.3496C103.088 28.5922 102.767 28.8869 102.524 29.2336L100.522 29.3116C100.713 29.0169 100.704 28.7222 100.496 28.4276C100.305 28.1329 100.054 27.9856 99.7421 27.9856C99.7421 27.9856 99.6901 27.9856 99.5861 27.9856C99.4994 27.9856 99.4561 27.9856 99.4561 27.9856L99.456 27.7256H105.15ZM112.229 27.7516L112.232 43.3516H108.488L108.485 27.7516H112.229ZM118.316 42.3116L118.914 43.3516H112.18L112.18 42.3116H118.316ZM117.43 35.1096L117.431 36.1496H112.179L112.178 35.1096H117.43ZM118.599 27.7516L118.599 28.7916H112.177L112.177 27.7516H118.599ZM119.979 38.5676L118.992 43.3516H114.494L115.3 42.3116C116.045 42.3116 116.704 42.1642 117.276 41.8696C117.865 41.5576 118.368 41.1242 118.784 40.5696C119.199 39.9976 119.52 39.3302 119.745 38.5676H119.979ZM117.431 36.0976L117.431 38.3856H117.171L117.171 38.1776C117.171 37.6056 116.989 37.1289 116.625 36.7476C116.278 36.3662 115.801 36.1669 115.195 36.1496L115.195 36.0976H117.431ZM117.43 32.8736L117.43 35.1616H115.194L115.194 35.1096C115.801 35.0922 116.278 34.8929 116.624 34.5116C116.988 34.1129 117.17 33.6276 117.17 33.0556L117.17 32.8736H117.43ZM118.599 28.7396L118.599 31.4956H118.339L118.339 31.2616C118.339 30.4989 118.131 29.9009 117.715 29.4676C117.316 29.0342 116.735 28.8089 115.973 28.7916L115.973 28.7396H118.599ZM118.598 27.3616L118.599 27.9856L115.869 27.7516C116.371 27.7516 116.9 27.7082 117.454 27.6216C118.009 27.5176 118.39 27.4309 118.598 27.3616ZM108.54 41.7136L108.67 43.3516H106.746L106.746 43.0916C106.746 43.0916 106.798 43.0916 106.902 43.0916C107.006 43.0916 107.067 43.0916 107.084 43.0916C107.466 43.0916 107.786 42.9616 108.046 42.7016C108.323 42.4242 108.471 42.0949 108.488 41.7136H108.54ZM108.537 29.3896H108.485C108.467 28.9909 108.32 28.6616 108.043 28.4016C107.783 28.1416 107.462 28.0116 107.081 28.0116C107.063 28.0116 107.003 28.0116 106.899 28.0116C106.795 28.0116 106.743 28.0116 106.743 28.0116L106.743 27.7516H108.667L108.537 29.3896ZM135.276 24.7876C135.622 24.7876 136.047 24.8049 136.55 24.8396C137.07 24.8742 137.598 24.9262 138.136 24.9956C138.69 25.0476 139.167 25.1082 139.566 25.1776C139.982 25.2296 140.268 25.2902 140.424 25.3596L140.113 28.8696H139.853C139.852 27.9682 139.514 27.2489 138.838 26.7116C138.179 26.1569 137.295 25.8796 136.186 25.8796C135.18 25.8796 134.366 26.1222 133.742 26.6076C133.135 27.0929 132.815 27.6822 132.78 28.3756C132.763 28.8956 132.928 29.3462 133.275 29.7276C133.622 30.1089 134.064 30.4642 134.601 30.7936L139.568 34.0176C140.365 34.4682 140.963 35.0576 141.362 35.7856C141.778 36.5136 141.961 37.3629 141.909 38.3336C141.823 40.0322 141.173 41.3582 139.96 42.3116C138.747 43.2476 137.1 43.7156 135.02 43.7156C134.258 43.7156 133.512 43.6462 132.784 43.5076C132.073 43.3862 131.441 43.2129 130.886 42.9876C130.331 42.7449 129.889 42.4589 129.56 42.1296C129.421 41.7482 129.36 41.2889 129.377 40.7516C129.395 40.2142 129.473 39.6682 129.611 39.1136C129.767 38.5589 129.957 38.0996 130.183 37.7356H130.417C130.348 38.6196 130.504 39.4429 130.885 40.2056C131.284 40.9509 131.856 41.5489 132.602 41.9996C133.365 42.4329 134.266 42.6409 135.306 42.6236C136.45 42.6062 137.334 42.3202 137.958 41.7656C138.582 41.1936 138.893 40.5089 138.893 39.7116C138.893 39.1742 138.728 38.6889 138.399 38.2556C138.087 37.8222 137.567 37.4062 136.839 37.0076L132.288 33.9916C131.369 33.4716 130.702 32.8042 130.285 31.9896C129.869 31.1749 129.704 30.2909 129.791 29.3376C129.877 28.4362 130.146 27.6476 130.596 26.9716C131.047 26.2782 131.662 25.7409 132.442 25.3596C133.239 24.9782 134.184 24.7876 135.276 24.7876ZM140.45 25.0476L140.398 25.5936H137.33L137.33 25.0476H140.45ZM153.298 27.8296L153.301 43.3516H149.531L149.528 27.8296H153.298ZM158.966 27.7256L158.966 28.7656H143.886L143.886 27.7256H158.966ZM158.966 28.6876L158.966 31.4436H158.68L158.68 31.2096C158.698 30.4642 158.489 29.8749 158.056 29.4416C157.64 29.0082 157.059 28.7829 156.314 28.7656L156.314 28.6876H158.966ZM158.965 27.3356L158.966 27.9856L156.21 27.7256C156.539 27.7256 156.894 27.7082 157.276 27.6736C157.657 27.6216 158.003 27.5696 158.315 27.5176C158.627 27.4482 158.844 27.3876 158.965 27.3356ZM149.583 41.7136L149.583 43.3516H147.841L147.841 43.0916C147.841 43.0916 147.885 43.0916 147.971 43.0916C148.075 43.0916 148.127 43.0916 148.127 43.0916C148.509 43.0916 148.829 42.9616 149.089 42.7016C149.366 42.4242 149.514 42.0949 149.531 41.7136H149.583ZM153.223 41.7136H153.301C153.301 42.0949 153.44 42.4242 153.717 42.7016C153.995 42.9616 154.333 43.0916 154.731 43.0916C154.731 43.0916 154.775 43.0916 154.861 43.0916C154.965 43.0916 155.017 43.0916 155.017 43.0916L155.017 43.3516H153.223L153.223 41.7136ZM146.538 28.6876L146.538 28.7656C145.775 28.7829 145.186 29.0082 144.77 29.4416C144.371 29.8749 144.172 30.4642 144.172 31.2096L144.172 31.4436H143.886L143.886 28.6876H146.538ZM143.885 27.3356C144.041 27.3702 144.267 27.4222 144.561 27.4916C144.873 27.5609 145.212 27.6216 145.576 27.6736C145.957 27.7082 146.304 27.7256 146.616 27.7256L143.886 27.9856L143.885 27.3356ZM166.404 27.0496L174.104 43.2216H169.71L164.871 31.8076L166.404 27.0496ZM161.52 41.6356C161.329 42.1036 161.355 42.4676 161.598 42.7276C161.841 42.9702 162.109 43.0916 162.404 43.0916H162.612L162.612 43.3516H157.412L157.412 43.0916C157.412 43.0916 157.447 43.0916 157.516 43.0916C157.585 43.0916 157.62 43.0916 157.62 43.0916C157.967 43.0916 158.331 42.9876 158.712 42.7796C159.093 42.5542 159.405 42.1729 159.648 41.6356H161.52ZM166.404 27.0496L166.457 30.1696L160.818 43.2736H158.894L164.975 30.1956C165.01 30.0916 165.088 29.9096 165.209 29.6496C165.33 29.3722 165.46 29.0689 165.599 28.7396C165.737 28.3929 165.867 28.0722 165.988 27.7776C166.11 27.4656 166.179 27.2229 166.196 27.0496H166.404ZM168.669 38.2556L168.669 39.2696H162.039L162.039 38.2556H168.669ZM169.06 41.6356H173.35C173.61 42.1729 173.931 42.5542 174.312 42.7796C174.693 42.9876 175.057 43.0916 175.404 43.0916C175.404 43.0916 175.439 43.0916 175.508 43.0916C175.577 43.0916 175.612 43.0916 175.612 43.0916L175.612 43.3516H167.968L167.968 43.0916H168.176C168.471 43.0916 168.739 42.9702 168.982 42.7276C169.225 42.4676 169.251 42.1036 169.06 41.6356ZM178.428 27.7776L183.318 36.2276L179.86 36.6176L174.164 27.7776H178.428ZM183.474 36.2796L183.475 43.3516H179.731L179.73 36.3316L183.474 36.2796ZM187.164 27.7776H189.088L183.214 36.7996L181.992 36.5656L187.164 27.7776ZM186.228 29.3636C186.419 29.0342 186.418 28.7309 186.228 28.4536C186.037 28.1589 185.777 28.0116 185.448 28.0116C185.448 28.0116 185.396 28.0116 185.292 28.0116C185.188 28.0116 185.136 28.0116 185.136 28.0116L185.136 27.7516H190.726L190.726 28.0116H190.388C189.92 28.0116 189.478 28.1416 189.062 28.4016C188.663 28.6442 188.343 28.9389 188.1 29.2856L186.228 29.3636ZM179.338 29.3636L175.126 29.2856C174.883 28.9216 174.562 28.6182 174.164 28.3756C173.765 28.1329 173.323 28.0116 172.838 28.0116H172.526L172.526 27.7516H180.43L180.43 28.0116C180.43 28.0116 180.378 28.0116 180.274 28.0116C180.187 28.0116 180.144 28.0116 180.144 28.0116C179.797 28.0116 179.528 28.1589 179.338 28.4536C179.164 28.7482 179.165 29.0516 179.338 29.3636ZM179.809 41.7136L179.809 43.3516H177.963L177.963 43.0916C177.981 43.0916 178.033 43.0916 178.119 43.0916C178.223 43.0916 178.275 43.0916 178.275 43.0916C178.674 43.0916 179.012 42.9616 179.289 42.7016C179.566 42.4242 179.714 42.0949 179.731 41.7136H179.809ZM183.423 41.7136H183.475C183.492 42.0949 183.64 42.4242 183.917 42.7016C184.212 42.9616 184.55 43.0916 184.931 43.0916C184.931 43.0916 184.983 43.0916 185.087 43.0916C185.191 43.0916 185.243 43.0916 185.243 43.0916L185.243 43.3516H183.423L183.423 41.7136ZM196.569 27.4136C196.915 27.4136 197.331 27.4309 197.817 27.4656C198.319 27.5002 198.813 27.5436 199.299 27.5956C199.784 27.6302 200.209 27.6822 200.573 27.7516C200.954 27.8036 201.214 27.8556 201.353 27.9076L201.016 31.0796H200.782C200.781 30.2822 200.504 29.6496 199.949 29.1816C199.394 28.7136 198.597 28.4796 197.557 28.4796C196.725 28.4796 196.049 28.6616 195.529 29.0256C195.027 29.3896 194.758 29.8749 194.724 30.4816C194.689 30.7936 194.741 31.0796 194.88 31.3396C195.036 31.5822 195.244 31.7989 195.504 31.9896C195.781 32.1802 196.085 32.3709 196.414 32.5616L200.497 35.0836C201.19 35.4302 201.736 35.9329 202.135 36.5916C202.534 37.2502 202.707 38.0476 202.656 38.9836C202.604 39.9542 202.318 40.7949 201.798 41.5056C201.296 42.2162 200.594 42.7622 199.693 43.1436C198.809 43.5076 197.76 43.6896 196.547 43.6896C195.801 43.6896 195.108 43.6289 194.467 43.5076C193.825 43.3862 193.271 43.2216 192.803 43.0136C192.352 42.8056 192.005 42.5716 191.762 42.3116C191.624 41.9649 191.563 41.5489 191.58 41.0636C191.597 40.5609 191.675 40.0669 191.814 39.5816C191.952 39.0789 192.126 38.6629 192.333 38.3336H192.541C192.49 39.1136 192.628 39.8329 192.958 40.4916C193.305 41.1502 193.808 41.6789 194.466 42.0776C195.125 42.4589 195.914 42.6496 196.832 42.6496C197.838 42.6496 198.592 42.4156 199.094 41.9476C199.597 41.4796 199.848 40.9336 199.848 40.3096C199.848 39.8416 199.692 39.4256 199.38 39.0616C199.085 38.6802 198.591 38.3076 197.897 37.9436L194.205 35.6036C193.338 35.1529 192.705 34.5549 192.306 33.8096C191.925 33.0642 191.786 32.2496 191.89 31.3656C191.976 30.5336 192.219 29.8229 192.617 29.2336C193.033 28.6442 193.579 28.1936 194.255 27.8816C194.931 27.5696 195.702 27.4136 196.569 27.4136ZM201.353 27.6476L201.327 28.1156H198.545L198.545 27.6476H201.353Z" fill="#D0CCDA"/>
</svg>
