<svg width="221" height="71" viewBox="0 0 221 71" fill="none" xmlns="http://www.w3.org/2000/svg">
<path d="M35.0366 43.5496C34.362 43.5496 33.7056 43.4616 33.0676 43.2856C32.4295 43.1096 31.7438 42.8346 31.0104 42.4606L30.2516 43.3516H29.5696L29.1392 37.7746L30.0522 37.6316C30.5219 39.2669 31.1419 40.4512 31.9121 41.1846C32.6896 41.9179 33.72 42.2846 35.0033 42.2846C35.92 42.2846 36.6496 42.0646 37.1922 41.6246C37.7421 41.1846 38.0169 40.5796 38.0167 39.8096C38.0166 39.3476 37.8222 38.9186 37.4334 38.5226C37.052 38.1192 36.3919 37.6902 35.4531 37.2356L33.6819 36.3556C32.2444 35.6442 31.1882 34.8559 30.5133 33.9906C29.8384 33.1252 29.5009 32.1169 29.5006 30.9656C29.5004 30.0782 29.7458 29.2899 30.237 28.6006C30.7282 27.9039 31.3917 27.3576 32.2276 26.9616C33.0708 26.5656 34.0241 26.3676 35.0875 26.3676C36.5761 26.3676 37.8522 26.8186 38.9158 27.7206L39.4325 26.5656H40.1585L40.3687 31.3836H39.4117C39.052 30.1442 38.5238 29.2129 37.827 28.5896C37.1375 27.9662 36.2611 27.6546 35.1978 27.6546C34.4498 27.6546 33.8668 27.8379 33.4489 28.2046C33.031 28.5712 32.8221 29.0772 32.8223 29.7226C32.8224 30.2212 33.0095 30.6686 33.3836 31.0646C33.7577 31.4532 34.4068 31.8822 35.3309 32.3516L37.0691 33.2426C38.448 33.9466 39.4382 34.7202 40.0397 35.5636C40.6486 36.4069 40.9532 37.4189 40.9534 38.5996C40.9537 39.5382 40.6935 40.3816 40.1731 41.1296C39.6526 41.8776 38.9451 42.4679 38.0505 42.9006C37.1559 43.3332 36.1513 43.5496 35.0366 43.5496ZM47.1839 43.3516L47.1837 42.5486L49.7906 42.0646L49.7871 27.7866H46.2451C45.7759 28.3806 45.3764 29.0149 45.0465 29.6896C44.724 30.3642 44.4565 30.9986 44.244 31.5926H43.397L44.1878 26.5986H59.0488L59.853 31.5926H59.006C58.7858 30.9986 58.5254 30.3642 58.2245 29.6896C57.9237 29.0149 57.5385 28.3806 57.0691 27.7866H53.5161L53.5196 42.0646L56.1047 42.5486L56.1049 43.3516H47.1839ZM59.3406 43.3516L59.3404 42.5486C60.0224 42.4312 60.5357 42.2992 60.8803 42.1526C61.2323 42.0059 61.5072 41.7822 61.7051 41.4816C61.9104 41.1736 62.1266 40.7262 62.3538 40.1396L66.4652 29.6346L65.4637 27.3906L68.7084 26.1586L74.9381 41.2286C75.0775 41.5512 75.2279 41.8042 75.3893 41.9876C75.5506 42.1636 75.778 42.2919 76.0713 42.3726C76.3647 42.4532 76.7754 42.5119 77.3034 42.5486L77.3036 43.3516H68.3276L68.3274 42.5486C68.9581 42.5266 69.4457 42.4789 69.7904 42.4056C70.1423 42.3249 70.355 42.1709 70.4282 41.9436C70.5015 41.7089 70.4428 41.3496 70.252 40.8656L67.0378 32.1206H66.9498L63.8608 40.1726C63.6776 40.7006 63.6117 41.1186 63.6631 41.4266C63.7219 41.7272 63.9419 41.9619 64.3233 42.1306C64.7047 42.2919 65.2877 42.4312 66.0724 42.5486L66.0726 43.3516H59.3406ZM63.7724 38.5116L63.7721 37.2796H70.7901L70.7904 38.5116H63.7724ZM80.6959 43.3516L80.6957 42.5486L82.5436 42.0866L82.5421 36.0586L78.3823 28.7216C78.1769 28.3549 77.9788 28.0836 77.7881 27.9076C77.6047 27.7316 77.3664 27.6106 77.073 27.5446C76.787 27.4786 76.3873 27.4272 75.874 27.3906L75.8738 26.5986H84.8718L84.872 27.3906C83.8893 27.4639 83.2367 27.6326 82.9141 27.8966C82.5988 28.1606 82.5843 28.5492 82.8704 29.0626L85.6547 34.5406H85.7427L88.2386 29.7776C88.693 28.9196 88.7735 28.3146 88.4801 27.9626C88.1867 27.6106 87.4387 27.4199 86.236 27.3906L86.2358 26.5986H92.8248L92.825 27.3906C92.3703 27.4272 92 27.4786 91.714 27.5446C91.428 27.6106 91.1824 27.7206 90.9771 27.8746C90.7791 28.0286 90.5812 28.2596 90.3833 28.5676C90.1853 28.8756 89.9434 29.2899 89.6576 29.8106L86.2931 36.0806L86.2946 42.0866L88.1207 42.5486L88.1209 43.3516H80.6959ZM102.846 43.3516L102.845 42.5486L105.452 42.0646L105.449 27.7866H101.907C101.438 28.3806 101.038 29.0149 100.708 29.6896C100.386 30.3642 100.118 30.9986 99.9057 31.5926H99.0587L99.8495 26.5986H114.71L115.515 31.5926H114.668C114.448 30.9986 114.187 30.3642 113.886 29.6896C113.585 29.0149 113.2 28.3806 112.731 27.7866H109.178L109.181 42.0646L111.766 42.5486L111.767 43.3516H102.846ZM126.056 43.5826C124.751 43.5826 123.592 43.3809 122.58 42.9776C121.568 42.5742 120.776 41.9949 120.204 41.2396C119.866 40.8216 119.624 40.3266 119.477 39.7546C119.331 39.1826 119.257 38.4419 119.257 37.5326L119.254 27.7976L117.417 27.3906L117.417 26.5986H124.963L124.963 27.3906L123.049 27.7976L123.052 37.5326C123.052 39.0139 123.382 40.1652 124.043 40.9866C124.703 41.8006 125.638 42.2076 126.848 42.2076C128.197 42.2076 129.195 41.7566 129.84 40.8546C130.177 40.3852 130.422 39.7692 130.576 39.0066C130.73 38.2366 130.807 37.2209 130.806 35.9596L130.804 27.7976L128.879 27.3906L128.879 26.5986H134.236L134.236 27.3906L132.311 27.7976L132.314 37.1916C132.314 38.0202 132.226 38.7792 132.05 39.4686C131.882 40.1506 131.636 40.7482 131.314 41.2616C130.815 42.0316 130.13 42.6109 129.257 42.9996C128.392 43.3882 127.325 43.5826 126.056 43.5826ZM136.737 43.3516L136.737 42.5486L138.596 42.1196L138.592 27.7976L136.733 27.3906L136.733 26.5986H144.378L144.378 27.3906L142.332 27.8196L142.336 42.1086H147.748C148.18 41.5072 148.551 40.9022 148.859 40.2936C149.174 39.6776 149.467 38.9992 149.738 38.2586H150.871L149.948 43.3516H136.737ZM161.106 43.5826C159.801 43.5826 158.642 43.3809 157.63 42.9776C156.618 42.5742 155.826 41.9949 155.253 41.2396C154.916 40.8216 154.674 40.3266 154.527 39.7546C154.38 39.1826 154.307 38.4419 154.306 37.5326L154.304 27.7976L152.467 27.3906L152.467 26.5986H160.013L160.013 27.3906L158.099 27.7976L158.101 37.5326C158.102 39.0139 158.432 40.1652 159.092 40.9866C159.753 41.8006 160.688 42.2076 161.898 42.2076C163.247 42.2076 164.244 41.7566 164.889 40.8546C165.226 40.3852 165.472 39.7692 165.626 39.0066C165.78 38.2366 165.856 37.2209 165.856 35.9596L165.854 27.7976L163.929 27.3906L163.929 26.5986H169.286L169.286 27.3906L167.361 27.7976L167.363 37.1916C167.364 38.0202 167.276 38.7792 167.1 39.4686C166.931 40.1506 166.686 40.7482 166.363 41.2616C165.865 42.0316 165.179 42.6109 164.307 42.9996C163.442 43.3882 162.375 43.5826 161.106 43.5826ZM181.159 43.5826L175.249 29.8326H175.161L175.164 42.1196L177.078 42.5486L177.078 43.3516H171.721L171.721 42.5486L173.657 42.1196L173.653 27.7976L171.728 27.3906L171.728 26.5986H178.339L182.863 37.8186H182.995L187.711 26.5986H193.31L193.31 27.3906L191.495 27.8196L191.499 42.0866L193.314 42.5486L193.314 43.3516H185.9L185.9 42.5486L187.748 42.0866L187.745 30.4156H187.657L182.193 43.5826H181.159Z" fill="#D0CCDA"/>
</svg>
