<svg width="221" height="71" viewBox="0 0 221 71" fill="none" xmlns="http://www.w3.org/2000/svg">
<path d="M48.4803 25.5016L48.6809 28.2266L41.2591 41.1016C41.2591 41.1016 41.1758 41.2516 41.0092 41.5516C40.8426 41.8349 40.676 42.1849 40.5094 42.6016C40.3595 43.0182 40.2846 43.4349 40.2847 43.8516H40.0347L39.0592 41.6766L48.4803 25.5016ZM31.5342 41.5266L31.5346 43.3516H28.7596L28.7596 43.1016C28.7762 43.1016 28.8512 43.1016 28.9846 43.1016C29.1012 43.1016 29.1596 43.1016 29.1596 43.1016C29.6096 43.1016 30.0095 42.9682 30.3595 42.7016C30.7094 42.4182 30.9176 42.0266 30.9842 41.5266H31.5342ZM32.6343 41.9266C32.6343 41.9432 32.6343 41.9599 32.6343 41.9766C32.6343 41.9932 32.6343 42.0182 32.6343 42.0516C32.6344 42.3182 32.7261 42.5682 32.9095 42.8016C33.1095 43.0182 33.3429 43.1266 33.6096 43.1266H33.9846L33.9846 43.3516H32.4596L32.4593 41.9266H32.6343ZM33.0553 25.5016H33.2803L34.1559 28.0016L32.4846 43.3516H30.7346L33.0553 25.5016ZM33.2803 25.5016L41.4585 38.9266L40.0347 43.8516L32.6317 31.4266L33.2803 25.5016ZM48.7053 25.5016L51.0846 43.3516H47.0596L45.8068 31.8516L48.4803 25.5016H48.7053ZM50.3092 41.5266H50.8342C50.9176 42.0266 51.1344 42.4182 51.4845 42.7016C51.8345 42.9682 52.2262 43.1016 52.6596 43.1016C52.6596 43.1016 52.7262 43.1016 52.8596 43.1016C52.9929 43.1016 53.0596 43.1016 53.0596 43.1016L53.0596 43.3516H50.3096L50.3092 41.5266ZM46.9093 41.9266H47.0843L47.0846 43.3516H45.5596L45.5596 43.1266H45.9346C46.2179 43.1266 46.4512 43.0182 46.6345 42.8016C46.8178 42.5682 46.9094 42.3182 46.9093 42.0516C46.9093 42.0182 46.9093 41.9932 46.9093 41.9766C46.9093 41.9599 46.9093 41.9432 46.9093 41.9266ZM60.7839 27.6766L68.1877 43.2266H63.9627L59.31 32.2516L60.7839 27.6766ZM56.0873 41.7016C55.9041 42.1516 55.9292 42.5016 56.1626 42.7516C56.396 42.9849 56.6544 43.1016 56.9377 43.1016H57.1377L57.1377 43.3516H52.1377L52.1377 43.1016C52.1377 43.1016 52.171 43.1016 52.2377 43.1016C52.3044 43.1016 52.3377 43.1016 52.3377 43.1016C52.671 43.1016 53.021 43.0016 53.3876 42.8016C53.7542 42.5849 54.0541 42.2182 54.2873 41.7016H56.0873ZM60.7839 27.6766L60.8347 30.6766L55.4127 43.2766H53.5627L59.4097 30.7016C59.443 30.6016 59.5179 30.4266 59.6345 30.1766C59.7511 29.9099 59.8761 29.6182 60.0093 29.3016C60.1426 28.9682 60.2675 28.6599 60.3841 28.3766C60.5007 28.0766 60.5673 27.8432 60.5839 27.6766H60.7839ZM62.9616 38.4516L62.9618 39.4266H56.5868L56.5866 38.4516H62.9616ZM63.3373 41.7016H67.4623C67.7125 42.2182 68.0209 42.5849 68.3876 42.8016C68.7543 43.0016 69.1044 43.1016 69.4377 43.1016C69.4377 43.1016 69.471 43.1016 69.5377 43.1016C69.6044 43.1016 69.6377 43.1016 69.6377 43.1016L69.6377 43.3516H62.2877L62.2877 43.1016H62.4877C62.771 43.1016 63.0293 42.9849 63.2626 42.7516C63.4959 42.5016 63.5208 42.1516 63.3373 41.7016ZM71.8448 28.3766L76.5468 36.5016L73.2219 36.8766L67.7448 28.3766H71.8448ZM76.6968 36.5516L76.6985 43.3516H73.0985L73.0968 36.6016L76.6968 36.5516ZM80.2448 28.3766H82.0948L76.447 37.0516L75.2719 36.8266L80.2448 28.3766ZM79.3452 29.9016C79.5285 29.5849 79.5284 29.2932 79.345 29.0266C79.1616 28.7432 78.9116 28.6016 78.5949 28.6016C78.5949 28.6016 78.5449 28.6016 78.4449 28.6016C78.3449 28.6016 78.2949 28.6016 78.2949 28.6016L78.2948 28.3516H83.6698L83.6699 28.6016H83.3449C82.8949 28.6016 82.4699 28.7266 82.07 28.9766C81.6867 29.2099 81.3784 29.4932 81.1452 29.8266L79.3452 29.9016ZM72.7202 29.9016L68.6702 29.8266C68.4368 29.4766 68.1284 29.1849 67.745 28.9516C67.3616 28.7182 66.9366 28.6016 66.4699 28.6016H66.1699L66.1698 28.3516H73.7698L73.7699 28.6016C73.7699 28.6016 73.7199 28.6016 73.6199 28.6016C73.5366 28.6016 73.4949 28.6016 73.4949 28.6016C73.1616 28.6016 72.9033 28.7432 72.72 29.0266C72.5534 29.3099 72.5535 29.6016 72.7202 29.9016ZM73.1731 41.7766L73.1735 43.3516H71.3985L71.3984 43.1016C71.4151 43.1016 71.4651 43.1016 71.5484 43.1016C71.6484 43.1016 71.6984 43.1016 71.6984 43.1016C72.0818 43.1016 72.4067 42.9766 72.6733 42.7266C72.9399 42.4599 73.0815 42.1432 73.0981 41.7766H73.1731ZM76.6481 41.7766H76.6981C76.7149 42.1432 76.8566 42.4599 77.1233 42.7266C77.4067 42.9766 77.7318 43.1016 78.0984 43.1016C78.0984 43.1016 78.1484 43.1016 78.2484 43.1016C78.3484 43.1016 78.3984 43.1016 78.3984 43.1016L78.3985 43.3516H76.6485L76.6481 41.7766ZM88.8601 27.6766L96.2639 43.2266H92.0389L87.3862 32.2516L88.8601 27.6766ZM84.1635 41.7016C83.9803 42.1516 84.0054 42.5016 84.2388 42.7516C84.4722 42.9849 84.7305 43.1016 85.0139 43.1016H85.2139L85.2139 43.3516H80.2139L80.2139 43.1016C80.2139 43.1016 80.2472 43.1016 80.3139 43.1016C80.3805 43.1016 80.4139 43.1016 80.4139 43.1016C80.7472 43.1016 81.0972 43.0016 81.4638 42.8016C81.8304 42.5849 82.1303 42.2182 82.3635 41.7016H84.1635ZM88.8601 27.6766L88.9108 30.6766L83.4889 43.2766H81.6389L87.4858 30.7016C87.5191 30.6016 87.5941 30.4266 87.7107 30.1766C87.8273 29.9099 87.9522 29.6182 88.0855 29.3016C88.2187 28.9682 88.3437 28.6599 88.4603 28.3766C88.5769 28.0766 88.6435 27.8432 88.6601 27.6766H88.8601ZM91.0377 38.4516L91.038 39.4266H84.663L84.6627 38.4516H91.0377ZM91.4135 41.7016H95.5385C95.7886 42.2182 96.0971 42.5849 96.4638 42.8016C96.8305 43.0016 97.1805 43.1016 97.5139 43.1016C97.5139 43.1016 97.5472 43.1016 97.6139 43.1016C97.6805 43.1016 97.7139 43.1016 97.7139 43.1016L97.7139 43.3516H90.3639L90.3639 43.1016H90.5639C90.8472 43.1016 91.1055 42.9849 91.3388 42.7516C91.572 42.5016 91.597 42.1516 91.4135 41.7016ZM121.799 25.8516L121.803 43.3516H118.053L118.049 25.8516H121.799ZM109.949 25.8516L109.953 43.3516H106.203L106.199 25.8516H109.949ZM118.276 34.1016L118.276 35.1766H109.701L109.701 34.1016H118.276ZM106.277 41.5266L106.278 43.3516H104.278L104.278 43.1016C104.278 43.1016 104.328 43.1016 104.428 43.1016C104.544 43.1016 104.603 43.1016 104.603 43.1016C105.036 43.1016 105.403 42.9516 105.703 42.6516C106.019 42.3349 106.186 41.9599 106.202 41.5266H106.277ZM106.274 27.6766H106.199C106.182 27.2432 106.015 26.8766 105.699 26.5766C105.399 26.2599 105.032 26.1016 104.599 26.1016C104.599 26.1016 104.54 26.1016 104.424 26.1016C104.324 26.1016 104.274 26.1016 104.274 26.1016L104.274 25.8516H106.274L106.274 27.6766ZM109.877 41.5266H109.952C109.969 41.9599 110.128 42.3349 110.428 42.6516C110.744 42.9516 111.119 43.1016 111.553 43.1016C111.553 43.1016 111.603 43.1016 111.703 43.1016C111.803 43.1016 111.861 43.1016 111.878 43.1016L111.878 43.3516H109.878L109.877 41.5266ZM109.874 27.6766L109.874 25.8516H111.874L111.874 26.1016C111.857 26.1016 111.799 26.1016 111.699 26.1016C111.599 26.1016 111.549 26.1016 111.549 26.1016C111.115 26.1016 110.74 26.2599 110.424 26.5766C110.124 26.8766 109.966 27.2432 109.949 27.6766H109.874ZM118.127 41.5266L118.128 43.3516H116.128L116.128 43.1016C116.144 43.1016 116.203 43.1016 116.303 43.1016C116.403 43.1016 116.453 43.1016 116.453 43.1016C116.886 43.1016 117.261 42.9516 117.578 42.6516C117.894 42.3349 118.052 41.9599 118.052 41.5266H118.127ZM118.124 27.6766H118.049C118.049 27.2432 117.89 26.8766 117.574 26.5766C117.257 26.2599 116.882 26.1016 116.449 26.1016C116.449 26.1016 116.399 26.1016 116.299 26.1016C116.199 26.1016 116.14 26.1016 116.124 26.1016L116.124 25.8516H118.124L118.124 27.6766ZM121.727 41.5266H121.802C121.819 41.9599 121.978 42.3349 122.278 42.6516C122.594 42.9516 122.969 43.1016 123.403 43.1016C123.403 43.1016 123.453 43.1016 123.553 43.1016C123.669 43.1016 123.728 43.1016 123.728 43.1016L123.728 43.3516H121.728L121.727 41.5266ZM121.724 27.6766L121.724 25.8516H123.724L123.724 26.1016C123.724 26.1016 123.665 26.1016 123.549 26.1016C123.449 26.1016 123.399 26.1016 123.399 26.1016C122.965 26.1016 122.59 26.2599 122.274 26.5766C121.974 26.8766 121.816 27.2432 121.799 27.6766H121.724ZM134.067 28.0266C135.4 28.0266 136.608 28.2099 137.692 28.5766C138.775 28.9266 139.709 29.4432 140.492 30.1266C141.276 30.8099 141.876 31.6349 142.293 32.6016C142.726 33.5682 142.943 34.6599 142.944 35.8766C142.944 37.0766 142.727 38.1599 142.294 39.1266C141.878 40.0766 141.278 40.8932 140.495 41.5766C139.712 42.2599 138.779 42.7849 137.695 43.1516C136.612 43.5016 135.404 43.6766 134.07 43.6766C132.754 43.6766 131.554 43.5016 130.47 43.1516C129.387 42.7849 128.453 42.2599 127.67 41.5766C126.886 40.8932 126.286 40.0766 125.869 39.1266C125.452 38.1599 125.244 37.0766 125.244 35.8766C125.243 34.6599 125.451 33.5682 125.868 32.6016C126.284 31.6349 126.884 30.8099 127.667 30.1266C128.45 29.4432 129.384 28.9266 130.467 28.5766C131.55 28.2099 132.75 28.0266 134.067 28.0266ZM134.07 42.7016C135.087 42.7016 135.97 42.4266 136.72 41.8766C137.487 41.3099 138.07 40.5182 138.469 39.5016C138.886 38.4849 139.094 37.2766 139.094 35.8766C139.093 34.4599 138.885 33.2432 138.468 32.2266C138.067 31.1932 137.484 30.4016 136.717 29.8516C135.967 29.2849 135.084 29.0016 134.067 29.0016C133.067 29.0016 132.192 29.2849 131.442 29.8516C130.692 30.4016 130.109 31.1932 129.693 32.2266C129.276 33.2432 129.068 34.4599 129.069 35.8766C129.069 37.2766 129.278 38.4849 129.694 39.5016C130.111 40.5182 130.695 41.3099 131.445 41.8766C132.195 42.4266 133.07 42.7016 134.07 42.7016ZM161.279 28.0266L161.479 30.6016L154.757 41.2766C154.757 41.2766 154.682 41.4182 154.532 41.7016C154.382 41.9682 154.232 42.2932 154.082 42.6766C153.949 43.0599 153.874 43.4432 153.858 43.8266H153.633L152.657 41.7766L161.279 28.0266ZM145.907 41.7516L145.907 43.3516H143.457L143.457 43.1016C143.457 43.1016 143.516 43.1016 143.632 43.1016C143.732 43.1016 143.782 43.1016 143.782 43.1016C144.199 43.1016 144.557 42.9849 144.857 42.7516C145.174 42.5182 145.366 42.1849 145.432 41.7516H145.907ZM146.982 42.1016C146.966 42.2849 147.024 42.5016 147.157 42.7516C147.291 42.9849 147.524 43.1016 147.857 43.1016H148.207L148.207 43.3516H146.707L146.857 42.1016H146.982ZM147.379 28.0266H147.579L148.429 30.4266L146.857 43.3516H145.232L147.379 28.0266ZM147.579 28.0266L154.981 39.1016L153.633 43.8266L146.98 33.7516L147.579 28.0266ZM161.504 28.0266L163.707 43.3516H159.882L158.655 34.2266L161.279 28.0266H161.504ZM163.007 41.7516H163.482C163.566 42.1849 163.757 42.5182 164.057 42.7516C164.374 42.9849 164.724 43.1016 165.107 43.1016C165.107 43.1016 165.166 43.1016 165.282 43.1016C165.399 43.1016 165.457 43.1016 165.457 43.1016L165.457 43.3516H163.007L163.007 41.7516ZM159.707 42.1016H159.857L160.007 43.3516H158.507L158.507 43.1016H158.857C159.224 43.1016 159.466 42.9849 159.582 42.7516C159.699 42.5016 159.741 42.2849 159.707 42.1016ZM171.361 28.3516L171.365 43.3516H167.765L167.761 28.3516H171.361ZM177.214 42.3516L177.79 43.3516H171.315L171.314 42.3516H177.214ZM176.363 35.4266L176.363 36.4266H171.313L171.313 35.4266H176.363ZM177.486 28.3516L177.486 29.3516H171.311L171.311 28.3516H177.486ZM178.813 38.7516L177.865 43.3516H173.54L174.314 42.3516C175.031 42.3516 175.664 42.2099 176.214 41.9266C176.781 41.6266 177.264 41.2099 177.664 40.6766C178.064 40.1266 178.372 39.4849 178.588 38.7516H178.813ZM176.363 36.3766L176.363 38.5766H176.113L176.113 38.3766C176.113 37.8266 175.938 37.3682 175.588 37.0016C175.255 36.6349 174.796 36.4432 174.213 36.4266L174.213 36.3766H176.363ZM176.362 33.2766L176.363 35.4766H174.213L174.213 35.4266C174.796 35.4099 175.254 35.2182 175.587 34.8516C175.937 34.4682 176.112 34.0016 176.112 33.4516L176.112 33.2766H176.362ZM177.486 29.3016L177.487 31.9516H177.237L177.237 31.7266C177.236 30.9932 177.036 30.4182 176.636 30.0016C176.253 29.5849 175.694 29.3682 174.961 29.3516L174.961 29.3016H177.486ZM177.486 27.9766L177.486 28.5766L174.861 28.3516C175.344 28.3516 175.852 28.3099 176.386 28.2266C176.919 28.1266 177.286 28.0432 177.486 27.9766ZM167.814 41.7766L167.94 43.3516H166.09L166.089 43.1016C166.089 43.1016 166.139 43.1016 166.239 43.1016C166.339 43.1016 166.398 43.1016 166.414 43.1016C166.781 43.1016 167.089 42.9766 167.339 42.7266C167.606 42.4599 167.748 42.1432 167.764 41.7766H167.814ZM167.811 29.9266H167.761C167.744 29.5432 167.603 29.2266 167.336 28.9766C167.086 28.7266 166.778 28.6016 166.411 28.6016C166.394 28.6016 166.336 28.6016 166.236 28.6016C166.136 28.6016 166.086 28.6016 166.086 28.6016L166.086 28.3516H167.936L167.811 29.9266ZM185.297 28.0266C185.63 28.0266 186.03 28.0432 186.497 28.0766C186.98 28.1099 187.455 28.1516 187.922 28.2016C188.389 28.2349 188.797 28.2849 189.147 28.3516C189.514 28.4016 189.764 28.4516 189.897 28.5016L189.573 31.5516H189.348C189.348 30.7849 189.081 30.1766 188.548 29.7266C188.014 29.2766 187.247 29.0516 186.247 29.0516C185.447 29.0516 184.797 29.2266 184.297 29.5766C183.814 29.9266 183.556 30.3932 183.523 30.9766C183.49 31.2766 183.54 31.5516 183.673 31.8016C183.823 32.0349 184.023 32.2432 184.273 32.4266C184.54 32.6099 184.832 32.7932 185.148 32.9766L189.074 35.4016C189.741 35.7349 190.266 36.2182 190.649 36.8516C191.033 37.4849 191.2 38.2516 191.15 39.1516C191.1 40.0849 190.825 40.8932 190.325 41.5766C189.842 42.2599 189.167 42.7849 188.301 43.1516C187.451 43.5016 186.443 43.6766 185.276 43.6766C184.559 43.6766 183.893 43.6182 183.276 43.5016C182.659 43.3849 182.126 43.2266 181.676 43.0266C181.242 42.8266 180.909 42.6016 180.676 42.3516C180.542 42.0182 180.484 41.6182 180.5 41.1516C180.517 40.6682 180.592 40.1932 180.725 39.7266C180.858 39.2432 181.025 38.8432 181.225 38.5266H181.425C181.375 39.2766 181.508 39.9682 181.825 40.6016C182.159 41.2349 182.642 41.7432 183.276 42.1266C183.909 42.4932 184.667 42.6766 185.551 42.6766C186.517 42.6766 187.242 42.4516 187.726 42.0016C188.209 41.5516 188.45 41.0266 188.45 40.4266C188.45 39.9766 188.3 39.5766 188 39.2266C187.716 38.8599 187.241 38.5016 186.575 38.1516L183.024 35.9016C182.191 35.4682 181.582 34.8932 181.199 34.1766C180.832 33.4599 180.698 32.6766 180.798 31.8266C180.881 31.0266 181.114 30.3432 181.498 29.7766C181.897 29.2099 182.422 28.7766 183.072 28.4766C183.722 28.1766 184.464 28.0266 185.297 28.0266ZM189.897 28.2516L189.872 28.7016H187.197L187.197 28.2516H189.897Z" fill="#D0CCDA"/>
</svg>
