<svg width="221" height="71" viewBox="0 0 221 71" fill="none" xmlns="http://www.w3.org/2000/svg">
<path d="M49.0339 45.4716C47.7859 45.4716 46.6498 45.2316 45.6257 44.7516C44.6176 44.2716 43.7454 43.6236 43.0092 42.8076C42.289 41.9756 41.7288 41.0476 41.3285 40.0236C40.9283 38.9836 40.728 37.9196 40.7278 36.8316C40.7275 35.6956 40.9352 34.6156 41.351 33.5916C41.7827 32.5516 42.3665 31.6316 43.1023 30.8316C43.8541 30.0156 44.7339 29.3756 45.7418 28.9116C46.7657 28.4316 47.8857 28.1916 49.1017 28.1916C50.3337 28.1916 51.4537 28.4396 52.4618 28.9356C53.486 29.4316 54.3581 30.0956 55.0783 30.9276C55.7985 31.7596 56.3588 32.6876 56.759 33.7116C57.1593 34.7356 57.3595 35.7916 57.3598 36.8796C57.36 37.9996 57.1523 39.0796 56.7366 40.1196C56.3208 41.1436 55.737 42.0636 54.9852 42.8796C54.2494 43.6796 53.3696 44.3116 52.3457 44.7756C51.3378 45.2396 50.2339 45.4716 49.0339 45.4716ZM44.0878 36.8316C44.0879 37.5676 44.2001 38.2796 44.4243 38.9676C44.6485 39.6556 44.9686 40.2716 45.3847 40.8156C45.8169 41.3436 46.337 41.7676 46.945 42.0876C47.5691 42.3916 48.2732 42.5436 49.0572 42.5436C49.8572 42.5436 50.5691 42.3836 51.193 42.0636C51.817 41.7276 52.3369 41.2876 52.7527 40.7436C53.1686 40.1836 53.4804 39.5676 53.6883 38.8956C53.9121 38.2076 54.0239 37.5196 54.0238 36.8316C54.0236 36.0956 53.9034 35.3916 53.6632 34.7196C53.4391 34.0316 53.1109 33.4236 52.6788 32.8956C52.2627 32.3516 51.7426 31.9276 51.1185 31.6236C50.5104 31.3036 49.8224 31.1436 49.0544 31.1436C48.2384 31.1436 47.5184 31.3116 46.8945 31.6476C46.2866 31.9676 45.7747 32.3996 45.3588 32.9436C44.9429 33.4876 44.6231 34.0956 44.3993 34.7676C44.1914 35.4396 44.0876 36.1276 44.0878 36.8316ZM60.9941 28.3116L65.6053 41.4156L70.1621 28.3116H73.6421L67.1902 45.3516H63.9982L57.5141 28.3116H60.9941ZM87.2963 42.4476L87.297 45.3516H75.465L75.4608 28.3116H87.0768L87.0775 31.2156H78.7735L78.7745 35.3196H85.9505L85.9512 38.0076H78.7752L78.7763 42.4476H87.2963ZM89.879 45.3516L89.8749 28.3116H97.4109C98.1949 28.3116 98.9149 28.4716 99.571 28.7916C100.243 29.1116 100.819 29.5436 101.299 30.0876C101.795 30.6316 102.172 31.2396 102.428 31.9116C102.7 32.5836 102.836 33.2716 102.836 33.9756C102.836 34.6956 102.709 35.3916 102.453 36.0636C102.213 36.7196 101.861 37.2956 101.397 37.7916C100.933 38.2876 100.389 38.6716 99.7655 38.9436L103.655 45.3516H100.007L96.5016 39.6396H93.1896L93.191 45.3516H89.879ZM93.1889 36.7356H97.3409C97.7569 36.7356 98.1249 36.6156 98.4448 36.3756C98.7648 36.1196 99.0207 35.7836 99.2126 35.3676C99.4045 34.9516 99.5004 34.4876 99.5003 33.9756C99.5001 33.4316 99.388 32.9596 99.1639 32.5596C98.9398 32.1436 98.6517 31.8156 98.2997 31.5756C97.9636 31.3356 97.5956 31.2156 97.1956 31.2156H93.1876L93.1889 36.7356ZM111.668 28.3596H114.74L116.685 33.9996L118.652 28.3596H121.7L118.774 36.1116L120.935 41.5356L125.756 28.3116H129.356L122.544 45.3516H119.688L116.686 38.1996L113.712 45.3516H110.856L104.06 28.3116H107.612L112.463 41.5356L114.574 36.1116L111.668 28.3596ZM137.721 45.4716C136.473 45.4716 135.337 45.2316 134.313 44.7516C133.305 44.2716 132.433 43.6236 131.697 42.8076C130.977 41.9756 130.416 41.0476 130.016 40.0236C129.616 38.9836 129.416 37.9196 129.415 36.8316C129.415 35.6956 129.623 34.6156 130.038 33.5916C130.47 32.5516 131.054 31.6316 131.79 30.8316C132.542 30.0156 133.421 29.3756 134.429 28.9116C135.453 28.4316 136.573 28.1916 137.789 28.1916C139.021 28.1916 140.141 28.4396 141.149 28.9356C142.173 29.4316 143.046 30.0956 143.766 30.9276C144.486 31.7596 145.046 32.6876 145.447 33.7116C145.847 34.7356 146.047 35.7916 146.047 36.8796C146.048 37.9996 145.84 39.0796 145.424 40.1196C145.008 41.1436 144.425 42.0636 143.673 42.8796C142.937 43.6796 142.057 44.3116 141.033 44.7756C140.025 45.2396 138.921 45.4716 137.721 45.4716ZM132.775 36.8316C132.775 37.5676 132.888 38.2796 133.112 38.9676C133.336 39.6556 133.656 40.2716 134.072 40.8156C134.504 41.3436 135.024 41.7676 135.633 42.0876C136.257 42.3916 136.961 42.5436 137.745 42.5436C138.545 42.5436 139.257 42.3836 139.881 42.0636C140.504 41.7276 141.024 41.2876 141.44 40.7436C141.856 40.1836 142.168 39.5676 142.376 38.8956C142.6 38.2076 142.711 37.5196 142.711 36.8316C142.711 36.0956 142.591 35.3916 142.351 34.7196C142.127 34.0316 141.798 33.4236 141.366 32.8956C140.95 32.3516 140.43 31.9276 139.806 31.6236C139.198 31.3036 138.51 31.1436 137.742 31.1436C136.926 31.1436 136.206 31.3116 135.582 31.6476C134.974 31.9676 134.462 32.3996 134.046 32.9436C133.63 33.4876 133.311 34.0956 133.087 34.7676C132.879 35.4396 132.775 36.1276 132.775 36.8316ZM155.862 45.4716C154.614 45.4716 153.478 45.2316 152.454 44.7516C151.446 44.2716 150.574 43.6236 149.837 42.8076C149.117 41.9756 148.557 41.0476 148.157 40.0236C147.756 38.9836 147.556 37.9196 147.556 36.8316C147.556 35.6956 147.763 34.6156 148.179 33.5916C148.611 32.5516 149.195 31.6316 149.93 30.8316C150.682 30.0156 151.562 29.3756 152.57 28.9116C153.594 28.4316 154.714 28.1916 155.93 28.1916C157.162 28.1916 158.282 28.4396 159.29 28.9356C160.314 29.4316 161.186 30.0956 161.906 30.9276C162.627 31.7596 163.187 32.6876 163.587 33.7116C163.987 34.7356 164.188 35.7916 164.188 36.8796C164.188 37.9996 163.98 39.0796 163.565 40.1196C163.149 41.1436 162.565 42.0636 161.813 42.8796C161.078 43.6796 160.198 44.3116 159.174 44.7756C158.166 45.2396 157.062 45.4716 155.862 45.4716ZM150.916 36.8316C150.916 37.5676 151.028 38.2796 151.252 38.9676C151.477 39.6556 151.797 40.2716 152.213 40.8156C152.645 41.3436 153.165 41.7676 153.773 42.0876C154.397 42.3916 155.101 42.5436 155.885 42.5436C156.685 42.5436 157.397 42.3836 158.021 42.0636C158.645 41.7276 159.165 41.2876 159.581 40.7436C159.997 40.1836 160.309 39.5676 160.516 38.8956C160.74 38.2076 160.852 37.5196 160.852 36.8316C160.852 36.0956 160.732 35.3916 160.491 34.7196C160.267 34.0316 159.939 33.4236 159.507 32.8956C159.091 32.3516 158.571 31.9276 157.947 31.6236C157.339 31.3036 156.65 31.1436 155.882 31.1436C155.066 31.1436 154.347 31.3116 153.723 31.6476C153.115 31.9676 152.603 32.3996 152.187 32.9436C151.771 33.4876 151.451 34.0956 151.227 34.7676C151.02 35.4396 150.916 36.1276 150.916 36.8316ZM166.731 45.3516L166.726 28.3116H172.918C174.774 28.3116 176.327 28.6956 177.575 29.4636C178.823 30.2156 179.759 31.2396 180.383 32.5356C181.008 33.8156 181.32 35.2396 181.321 36.8076C181.321 38.5356 180.977 40.0396 180.29 41.3196C179.602 42.5996 178.626 43.5916 177.362 44.2956C176.115 44.9996 174.635 45.3516 172.923 45.3516H166.731ZM177.985 36.8076C177.984 35.7036 177.784 34.7356 177.384 33.9036C176.984 33.0556 176.407 32.3996 175.655 31.9356C174.903 31.4556 173.991 31.2156 172.919 31.2156H170.039L170.042 42.4476H172.922C174.01 42.4476 174.93 42.2076 175.682 41.7276C176.434 41.2316 177.001 40.5596 177.385 39.7116C177.785 38.8476 177.985 37.8796 177.985 36.8076Z" fill="#D0CCDA"/>
</svg>
