<svg width="221" height="71" viewBox="0 0 221 71" fill="none" xmlns="http://www.w3.org/2000/svg">
<path fill-rule="evenodd" clip-rule="evenodd" d="M97.442 16.4867L107.071 6.85556L109.047 8.9183L96.979 20.7867L96.9782 17.6069L96.9781 16.9507L97.442 16.4867ZM119.684 15.7713L112.302 8.39154L108.991 4.93479L110.038 3.88776L111.158 2.76758L112.278 3.88776L119.683 11.2906L119.684 15.7713ZM122.404 34.1596H125.349L125.345 17.6069L125.344 16.9507L124.88 16.4867L122.399 14.0063L122.404 34.1596ZM100.148 21.48L96.9799 24.5953L96.9823 34.1596H100.151L100.148 21.48Z" fill="#D0CCDA"/>
<path fill-rule="evenodd" clip-rule="evenodd" d="M112.281 12.7103L111.121 11.5508L110.003 12.7496L103.672 19.5343L103.246 19.9908L103.246 20.6152L103.248 29.2049L106.417 29.2049L106.415 21.2396L111.201 16.1102L116.363 21.2714L116.365 29.2049H119.534L119.532 20.6152L119.531 19.959L119.067 19.495L112.281 12.7103ZM119.534 31.9206H116.366L116.367 34.1411H119.535L119.534 31.9206ZM106.417 31.9206L103.249 31.9206L103.25 34.1411H106.418L106.417 31.9206Z" fill="#D0CCDA"/>
<path d="M78.1393 46.9054L78.1569 44.9501L78.1567 44.1173C78.1566 43.5862 78.1323 43.1637 78.084 42.8499C78.0477 42.524 77.8847 42.2826 77.595 42.1257C77.3173 41.9688 77.0397 41.8843 76.7621 41.8722C76.4845 41.8602 76.3456 41.7696 76.3456 41.6007C76.3456 41.4196 76.5145 41.3291 76.8525 41.3291L78.8983 41.4015L80.4916 41.3653C80.8175 41.3653 80.9804 41.4498 80.9805 41.6188C80.9805 41.7153 80.7029 41.8783 80.1478 42.1076C79.7616 42.2645 79.5686 42.9585 79.5689 44.1897L79.5162 50.8885C79.5165 51.9024 79.6555 52.6145 79.9332 53.0249C80.2229 53.4353 80.5247 53.6404 80.8386 53.6404L81.2007 53.6586C81.2852 53.6586 81.3697 53.6827 81.4542 53.731C81.5387 53.7672 81.5809 53.8336 81.5809 53.9301C81.581 54.0991 81.4301 54.1836 81.1284 54.1836L79.4084 54.1112L77.4169 54.2017C76.8737 54.2017 76.6021 54.1112 76.6021 53.9301C76.602 53.7611 76.7891 53.6525 77.1633 53.6042C77.3081 53.5922 77.4589 53.5197 77.6158 53.387C77.7727 53.2421 77.8692 53.0852 77.9054 52.9162C77.9536 52.7352 78.0017 52.005 78.0497 50.7256C78.1097 49.4341 78.1397 48.5047 78.1395 47.9374L78.1393 46.9054ZM82.7224 48.2995C82.7221 46.9959 82.9753 45.8191 83.482 44.769C83.9887 43.7189 84.767 42.874 85.8169 42.2343C86.8789 41.5826 88.1341 41.2567 89.5825 41.2567C90.3187 41.2567 91.0611 41.3653 91.8095 41.5826C92.5579 41.7998 93.1554 42.0171 93.602 42.2343L94.272 42.5783C94.3082 42.5783 94.3685 42.5482 94.453 42.4878C94.5375 42.4275 94.6039 42.3973 94.6521 42.3973C94.7125 42.3973 94.7728 42.4214 94.8332 42.4697C94.8936 42.518 94.9238 42.6568 94.9238 42.8861C94.936 43.1034 94.9602 43.4112 94.9965 43.8095C95.0449 44.1957 95.0872 44.5156 95.1234 44.769C95.1597 45.0225 95.1779 45.1734 95.1779 45.2217C95.1779 45.4389 95.1055 45.5475 94.9607 45.5475C94.8521 45.5475 94.7494 45.4631 94.6528 45.2941C93.4815 43.0973 91.7915 41.999 89.5827 41.999C88.0739 41.999 86.8369 42.4818 85.8715 43.4474C84.9061 44.413 84.4237 45.6743 84.424 47.2313C84.4245 48.9694 84.8714 50.454 85.7649 51.6851C86.2237 52.3128 86.8515 52.8076 87.6482 53.1697C88.4449 53.5318 89.3743 53.7129 90.4365 53.7129C92.1745 53.7129 93.6348 52.8076 94.8172 50.9971C94.8654 50.9126 94.956 50.8704 95.0887 50.8704C95.1974 50.8704 95.2517 50.9488 95.2517 51.1058C95.2518 51.2506 95.2277 51.4377 95.1794 51.667C95.1433 51.8843 95.0951 52.1317 95.0348 52.4093C94.9745 52.6748 94.9383 52.8378 94.9263 52.8981C94.9022 53.0309 94.8056 53.1395 94.6367 53.224C93.985 53.5379 93.4781 53.7732 93.116 53.9301C92.1505 54.3405 91.1186 54.5457 90.0202 54.5457C88.934 54.5457 87.9683 54.419 87.1234 54.1655C86.2784 53.912 85.5843 53.5801 85.0411 53.1697C84.5099 52.7593 84.0632 52.2765 83.7009 51.7213C83.0489 50.7437 82.7228 49.603 82.7224 48.2995ZM97.3265 48.046C97.326 46.0183 97.9352 44.3587 99.1539 43.0672C100.373 41.7636 102.099 41.1118 104.331 41.1118C105.369 41.1118 106.305 41.2627 107.138 41.5645C107.971 41.8662 108.629 42.2404 109.112 42.687C109.594 43.1215 109.999 43.6224 110.325 44.1897C110.892 45.1794 111.176 46.145 111.177 47.0865C111.177 48.728 110.857 50.116 110.218 51.2506C108.999 53.399 106.954 54.4733 104.081 54.4733C102.645 54.4733 101.402 54.1595 100.351 53.5318C99.3132 52.9042 98.5466 52.1136 98.0515 51.1601C97.5685 50.2065 97.3268 49.1685 97.3265 48.046ZM98.9196 47.1227C98.9198 48.1969 99.2037 49.2953 99.7713 50.4178C100.073 51.0213 100.435 51.5644 100.858 52.0472C101.293 52.5179 101.836 52.9102 102.488 53.224C103.152 53.5258 103.876 53.6767 104.66 53.6767C105.554 53.6767 106.435 53.4172 107.304 52.8981C108.269 52.3309 108.951 51.5403 109.349 50.5264C109.578 49.9833 109.693 49.3918 109.692 48.7521C109.692 46.5675 109.118 44.8716 107.971 43.6646C106.824 42.4456 105.406 41.836 103.716 41.836C102.388 41.836 101.254 42.2826 100.313 43.1758C99.3835 44.069 98.9191 45.3846 98.9196 47.1227ZM114.308 54.2198L112.77 54.256C112.504 54.256 112.371 54.1595 112.371 53.9663C112.371 53.8577 112.45 53.7913 112.607 53.7672C112.763 53.731 112.957 53.6344 113.186 53.4775C113.415 53.3206 113.578 53.0671 113.674 52.7171C113.771 52.355 113.873 51.1902 113.981 49.2228C114.09 47.2554 114.143 45.8252 114.143 44.932C114.143 44.0388 113.998 43.3387 113.708 42.8318C113.418 42.3128 112.948 42.0171 112.296 41.9447C112.139 41.9326 112.06 41.8421 112.06 41.6731C112.06 41.6007 112.103 41.5343 112.187 41.4739C112.272 41.4015 112.38 41.3653 112.513 41.3653L113.201 41.3834L114.088 41.3472C114.197 41.3472 114.323 41.3834 114.468 41.4558C114.613 41.5162 114.698 41.5765 114.722 41.6369C114.746 41.6852 114.812 41.7757 114.921 41.9085C115.03 42.0292 115.175 42.1921 115.356 42.3973C115.537 42.6025 115.7 42.8016 115.845 42.9947C117.487 45.1311 119.684 47.7081 122.437 50.7256C122.509 50.81 122.594 50.9066 122.69 51.0152C122.799 51.1239 122.871 51.2084 122.908 51.2687C122.956 51.317 123.004 51.3653 123.052 51.4135C123.137 51.498 123.203 51.5403 123.252 51.5403C123.372 51.5403 123.433 51.1661 123.432 50.4178L123.432 48.2995L123.395 44.588L123.395 44.4612C123.395 43.3508 123.201 42.6447 122.815 42.343C122.67 42.2343 122.549 42.168 122.453 42.1438C122.356 42.1076 122.217 42.0714 122.036 42.0352C121.541 41.9386 121.294 41.8059 121.294 41.6369C121.294 41.4558 121.409 41.3653 121.638 41.3653L123.358 41.3834C123.358 41.3834 123.901 41.3713 124.987 41.3472C125.192 41.3472 125.331 41.3713 125.404 41.4196C125.488 41.4558 125.53 41.5162 125.53 41.6007C125.53 41.6852 125.494 41.7515 125.422 41.7998C125.325 41.8602 125.15 41.9326 124.897 42.0171C124.499 42.2343 124.3 42.9163 124.3 44.0629L124.3 44.7509L124.103 53.7129L124.103 54.075C124.103 54.3526 124.019 54.4914 123.85 54.4914C123.741 54.4914 123.645 54.4491 123.56 54.3646C119.552 49.7177 117.155 46.9597 116.37 46.0907C115.598 45.2096 115.169 44.769 115.085 44.769C114.964 44.769 114.904 45.2639 114.904 46.2536C114.904 47.2313 114.88 48.384 114.832 49.7117C114.784 51.0273 114.761 51.7455 114.761 51.8662C114.761 52.4093 114.851 52.8257 115.032 53.1154C115.226 53.393 115.431 53.5499 115.648 53.5861C115.865 53.6223 116.065 53.6646 116.246 53.7129C116.439 53.7491 116.535 53.8336 116.535 53.9663C116.535 54.087 116.511 54.1655 116.463 54.2017C116.427 54.2379 116.354 54.256 116.246 54.256L114.308 54.2198ZM128.299 46.9054L128.317 44.9501L128.317 44.1173C128.316 43.5862 128.292 43.1637 128.244 42.8499C128.208 42.524 128.045 42.2826 127.755 42.1257C127.477 41.9688 127.2 41.8843 126.922 41.8722C126.644 41.8602 126.505 41.7696 126.505 41.6007C126.505 41.4196 126.674 41.3291 127.012 41.3291L129.058 41.4015L130.651 41.3653C130.977 41.3653 131.14 41.4498 131.14 41.6188C131.14 41.7153 130.863 41.8783 130.308 42.1076C129.921 42.2645 129.728 42.9585 129.729 44.1897L129.676 50.8885C129.676 51.9024 129.815 52.6145 130.093 53.0249C130.383 53.4353 130.685 53.6404 130.998 53.6404L131.361 53.6586C131.445 53.6586 131.529 53.6827 131.614 53.731C131.698 53.7672 131.741 53.8336 131.741 53.9301C131.741 54.0991 131.59 54.1836 131.288 54.1836L129.568 54.1112L127.577 54.2017C127.034 54.2017 126.762 54.1112 126.762 53.9301C126.762 53.7611 126.949 53.6525 127.323 53.6042C127.468 53.5922 127.619 53.5197 127.776 53.387C127.933 53.2421 128.029 53.0852 128.065 52.9162C128.113 52.7352 128.162 52.005 128.21 50.7256C128.27 49.4341 128.3 48.5047 128.299 47.9374L128.299 46.9054ZM132.882 48.2995C132.882 46.9959 133.135 45.8191 133.642 44.769C134.149 43.7189 134.927 42.874 135.977 42.2343C137.039 41.5826 138.294 41.2567 139.742 41.2567C140.479 41.2567 141.221 41.3653 141.969 41.5826C142.718 41.7998 143.315 42.0171 143.762 42.2343L144.432 42.5783C144.468 42.5783 144.528 42.5482 144.613 42.4878C144.697 42.4275 144.764 42.3973 144.812 42.3973C144.872 42.3973 144.933 42.4214 144.993 42.4697C145.053 42.518 145.084 42.6568 145.084 42.8861C145.096 43.1034 145.12 43.4112 145.156 43.8095C145.205 44.1957 145.247 44.5156 145.283 44.769C145.32 45.0225 145.338 45.1734 145.338 45.2217C145.338 45.4389 145.265 45.5475 145.121 45.5475C145.012 45.5475 144.909 45.4631 144.813 45.2941C143.641 43.0973 141.951 41.999 139.743 41.999C138.234 41.999 136.997 42.4818 136.031 43.4474C135.066 44.413 134.583 45.6743 134.584 47.2313C134.584 48.9694 135.031 50.454 135.925 51.6851C136.384 52.3128 137.011 52.8076 137.808 53.1697C138.605 53.5318 139.534 53.7129 140.596 53.7129C142.334 53.7129 143.795 52.8076 144.977 50.9971C145.025 50.9126 145.116 50.8704 145.249 50.8704C145.357 50.8704 145.412 50.9488 145.412 51.1058C145.412 51.2506 145.388 51.4377 145.339 51.667C145.303 51.8843 145.255 52.1317 145.195 52.4093C145.134 52.6748 145.098 52.8378 145.086 52.8981C145.062 53.0309 144.965 53.1395 144.797 53.224C144.145 53.5379 143.638 53.7732 143.276 53.9301C142.31 54.3405 141.278 54.5457 140.18 54.5457C139.094 54.5457 138.128 54.419 137.283 54.1655C136.438 53.912 135.744 53.5801 135.201 53.1697C134.67 52.7593 134.223 52.2765 133.861 51.7213C133.209 50.7437 132.883 49.603 132.882 48.2995Z" fill="#D0CCDA"/>
<path d="M98.0778 66.1719L98.0768 62.2217H98.5551L98.5556 63.9808H100.662L100.661 62.2217H101.14L101.141 66.1719H100.662L100.662 64.4051H98.5557L98.5561 66.1719H98.0778ZM107.603 64.1968C107.603 64.6134 107.528 64.9735 107.378 65.2769C107.228 65.5804 107.021 65.8144 106.759 65.979C106.497 66.1436 106.197 66.2259 105.86 66.2259C105.523 66.2259 105.224 66.1436 104.961 65.979C104.699 65.8144 104.493 65.5804 104.342 65.2769C104.192 64.9735 104.116 64.6134 104.116 64.1968C104.116 63.7802 104.191 63.4201 104.342 63.1167C104.492 62.8132 104.698 62.5792 104.961 62.4146C105.223 62.25 105.522 62.1677 105.859 62.1677C106.196 62.1677 106.496 62.25 106.758 62.4146C107.02 62.5792 107.227 62.8132 107.377 63.1167C107.528 63.4201 107.603 63.7802 107.603 64.1968ZM107.14 64.1968C107.14 63.8548 107.083 63.5661 106.969 63.3308C106.855 63.0955 106.702 62.9174 106.507 62.7965C106.315 62.6756 106.099 62.6152 105.859 62.6152C105.62 62.6152 105.404 62.6756 105.209 62.7965C105.017 62.9174 104.863 63.0955 104.749 63.3308C104.635 63.5661 104.579 63.8548 104.579 64.1968C104.579 64.5388 104.636 64.8275 104.749 65.0628C104.863 65.2981 105.017 65.4762 105.21 65.5971C105.404 65.718 105.621 65.7784 105.86 65.7784C106.099 65.7784 106.315 65.718 106.508 65.5971C106.702 65.4762 106.856 65.2981 106.969 65.0628C107.083 64.8275 107.141 64.5388 107.14 64.1968ZM110.58 62.2217H111.151L112.494 65.5007H112.54L113.882 62.2217H114.453L114.454 66.1719H114.006L114.006 63.1707H113.967L112.733 66.1719H112.301L111.066 63.1707H111.028L111.028 66.1719H110.581L110.58 62.2217ZM117.585 66.1719L117.585 62.2217H119.968L119.969 62.646H118.063L118.063 63.9808H119.845L119.846 64.4051H118.063L118.064 65.7475H120L120 66.1719H117.585ZM125.164 63.2093C125.141 63.0138 125.047 62.8621 124.882 62.7541C124.717 62.646 124.516 62.592 124.276 62.592C124.101 62.592 123.948 62.6203 123.817 62.6769C123.687 62.7335 123.586 62.8113 123.513 62.9103C123.441 63.0093 123.405 63.1218 123.405 63.2478C123.405 63.3533 123.43 63.4439 123.48 63.5198C123.531 63.5944 123.597 63.6567 123.677 63.7069C123.756 63.7557 123.84 63.7962 123.928 63.8284C124.015 63.8593 124.095 63.8843 124.169 63.9036L124.57 64.0116C124.673 64.0386 124.787 64.0759 124.913 64.1235C125.041 64.1711 125.162 64.236 125.278 64.3183C125.395 64.3993 125.491 64.5035 125.567 64.6308C125.643 64.7581 125.681 64.9143 125.681 65.0995C125.681 65.3129 125.625 65.5058 125.513 65.6781C125.403 65.8504 125.241 65.9874 125.027 66.0889C124.815 66.1905 124.558 66.2413 124.254 66.2413C123.971 66.2413 123.726 66.1957 123.519 66.1044C123.313 66.0131 123.151 65.8858 123.033 65.7225C122.916 65.5592 122.85 65.3695 122.834 65.1535H123.328C123.341 65.3026 123.391 65.4261 123.479 65.5238C123.567 65.6202 123.679 65.6922 123.814 65.7398C123.951 65.7861 124.097 65.8093 124.254 65.8093C124.437 65.8093 124.601 65.7797 124.746 65.7205C124.891 65.6601 125.006 65.5765 125.091 65.4698C125.176 65.3618 125.218 65.2358 125.218 65.0918C125.218 64.9606 125.181 64.8539 125.108 64.7716C125.035 64.6893 124.938 64.6224 124.819 64.571C124.699 64.5195 124.57 64.4745 124.431 64.436L123.945 64.2971C123.636 64.2084 123.392 64.0817 123.212 63.9171C123.032 63.7525 122.942 63.5371 122.942 63.271C122.942 63.0498 123.001 62.8569 123.121 62.6923C123.242 62.5265 123.404 62.3979 123.607 62.3066C123.811 62.214 124.04 62.1677 124.292 62.1677C124.546 62.1677 124.773 62.2134 124.971 62.3046C125.169 62.3947 125.326 62.5181 125.441 62.675C125.558 62.8319 125.62 63.0099 125.627 63.2093H125.164Z" fill="#D0CCDA"/>
</svg>
